<?xml version="1.0" encoding="UTF-8"?>
<!DOCTYPE svg PUBLIC "-//W3C//DTD SVG 1.1//EN" "http://www.w3.org/Graphics/SVG/1.1/DTD/svg11.dtd">
<!-- Creator: CorelDRAW -->
<svg xmlns="http://www.w3.org/2000/svg" xml:space="preserve" width="84.6666mm" height="21.1666mm" version="1.1" shape-rendering="geometricPrecision" text-rendering="geometricPrecision" image-rendering="optimizeQuality" fill-rule="evenodd" clip-rule="evenodd"
viewBox="0 0 8466.66 2116.66"
 xmlns:xlink="http://www.w3.org/1999/xlink"
 xmlns:xodm="http://www.corel.com/coreldraw/odm/2003">
 <g id="Слой_x0020_1">
  <metadata id="CorelCorpID_0Corel-Layer"/>
  <path fill="#7838EC" fill-rule="nonzero" d="M1507.4 549.41c11.42,1.71 9.07,2.2 19.96,8.48 13.04,40.52 4.44,392.52 4.19,457.15 -0.59,220.74 -0.01,441.48 1.74,662.21 0.29,58.27 8.01,181.98 -6.94,231.08 -30.57,100.35 -158.22,155.96 -251.55,103.63 -140.2,-78.69 -264.4,-153.7 -403.62,-231.27 -69.92,-38.95 -142.1,-76.83 -199.96,-131.31 -69.83,-65.86 -61.74,-152.59 -60.94,-239.66 -0.24,-103.68 0.4,-207.31 1.93,-310.99 41.15,-33.32 251.12,-158.8 295.13,-159.44 6.07,-0.1 6.28,-1.08 9.81,3.23 26.8,32.49 14.62,413.84 14.48,482 74.9,51.74 220.41,129.51 303.07,175.37l0.73 -898.88c63.42,-45.86 198.01,-112.75 271.97,-151.6z"/>
  <path fill="#FEFEFE" fill-rule="nonzero" d="M1673.73 164.38c58.79,16.56 212.04,99.56 259.21,140.92 96.04,84.22 68.48,281.69 67.91,404.14l-1.05 499.49c-0.15,77.61 -0.34,155.86 -1.26,233.52 -0.25,21.71 2.07,37.09 17.77,51.31 36.64,-0.15 382.62,-200.8 443.67,-233.68 -6.74,165.37 42.37,327.12 -119.83,428.74l-432.19 241.17c-48.1,26.85 -179.36,103.58 -222.6,117.84l-12.19 -7.2c-9.87,-51.25 -7.17,-170.37 -7.25,-227.89l-0.2 -387.68 -0.19 -797.11c0.01,-66.59 -7.34,-416.98 8.2,-463.57z"/>
  <path fill="#33E493" fill-rule="nonzero" d="M2114.56 394.62c43.06,7.89 284.56,139.4 308.15,181.93 57.77,104.03 29.22,346.52 29.26,468.48 0.01,54.14 -68.73,112.1 -110.95,141.51 -41.54,24.4 -178.88,118.67 -218.69,104.61 -7.95,-11.27 -8.93,-17.4 -9.11,-31.31 -1.97,-150.67 -0.76,-303.4 -1.42,-453.88l-1.29 -249.74c-0.24,-48.66 -2.5,-114.46 4.05,-161.6z"/>
  <path fill="#7838EC" fill-rule="nonzero" d="M1113.63 333.13c6.1,1.47 20.71,8.43 21.21,15.09 8.29,110.98 35.25,286.2 -68.83,359.8 -133.89,94.71 -283.88,168.26 -426.58,244.99 -11.76,4.36 -8.77,3.08 -21.83,3.92 -11.52,-20.14 -3.2,-98.63 -4.65,-123.67 -9.72,-168.02 5.15,-236.33 163.93,-317.91 110.3,-56.69 222.68,-126.17 336.75,-182.22z"/>
  <path fill="#FEFEFE" fill-rule="nonzero" d="M2781.36 892.89c74.81,-0.54 179.72,-4.71 252.04,3.38 181.63,20.19 243.62,240.24 116.91,372.98 -97.44,84.22 -240.07,64.33 -367.61,63.74 -1.39,-143.07 -2.72,-297.37 -1.34,-440.1z"/>
  <path fill="#120029" fill-rule="nonzero" d="M2882.11 976.43c47.43,-0.05 152.66,-9.06 186.51,22.98 62.34,58.94 59.32,151.01 7.62,213.98 -60.83,46.45 -115.93,35.72 -193.72,35.13 -0.41,-89.86 -1.38,-182.37 -0.41,-272.09z"/>
  <path fill="#FEFEFE" fill-rule="nonzero" d="M5024.78 870.5l87.95 -0.45 -0.14 153.47c201.14,-124.21 371.51,89.37 231.42,270.76 -123.53,95.84 -212.32,-1.52 -230.05,0.59 -7.25,0.88 -0.1,26.12 -6.32,32.29 -8.18,8.14 -76.1,3.24 -90.8,3.28 -1.76,-148.95 -0.15,-303.15 1.43,-452.3 0.04,-3.87 3.67,-5.98 6.51,-7.64z"/>
  <path fill="#120029" fill-rule="nonzero" d="M5173.89 1065.22c89.86,-8.33 131.36,30.91 116.71,128.52 -4.41,29.54 -33.47,46.35 -57.62,59.29 -42.09,4.75 -76.1,-2.11 -101.67,-39.79 -16.22,-24.3 -21.37,-54.29 -14.26,-82.66 9.11,-35.57 27.73,-48.46 56.84,-65.36z"/>
  <path fill="#FEFEFE" fill-rule="nonzero" d="M5968.4 891.86c30.37,-0.35 60.8,-0.05 91.18,0.78 14.7,15.63 28.71,31.95 41.89,48.9l29.6 38.91c65.36,85.84 90.84,113.82 151.7,209.47l0.49 -297.52c32.09,-0.34 64.24,-0.25 96.38,0.19l-0.54 437.9c-31.55,0.88 -63.11,1.08 -94.62,0.64 -76.97,-90.11 -140.52,-191 -218.92,-283.21l-2.65 283.21c-31.65,0.39 -63.25,0.49 -94.86,0.3l0.35 -439.57z"/>
  <path fill="#FEFEFE" fill-rule="nonzero" d="M7093.84 990.54l84.53 0.15c19.79,69.04 57.96,176.44 82.9,244.6 21.8,-79.72 49.73,-162.24 73.01,-242.84l90.89 -0.1 -19.75 65.76c-33.95,90.65 -66.1,181.98 -96.42,273.9l-97.66 -0.93c-26.12,-64.23 -54.88,-158.17 -77.32,-225 -25.28,72.13 -52.08,153.9 -81,223.82l-94.9 -0.39c-38.13,-101.52 -94.62,-239.16 -123.63,-338.53l99.52 -0.14c18.03,74.18 51.59,165.17 76.88,237.24 21.36,-76.78 55.42,-161.2 82.95,-237.54z"/>
  <path fill="#FEFEFE" fill-rule="nonzero" d="M3419.92 987.45c51.95,-3.57 96.87,1.48 140.8,31.46 34.85,23.47 58.45,60.27 65.2,101.77 3.01,17.94 10.45,46.25 2.66,63.65 -11.93,26.65 -223.5,-4.31 -252.55,12.4 -1.01,0.54 -2,1.52 -2.26,2.69 -1.04,4.7 4.5,11.37 6.9,14.8 63.76,91.19 164.64,9.36 175.67,12.94 1.65,0.53 3.23,1.27 4.83,1.91 17.07,15.58 31.97,30.03 48.28,46.35 -68.51,63.16 -169.27,86.92 -253.09,36.4 -146.04,-88 -110.42,-292.76 63.56,-324.37z"/>
  <path fill="#120029" fill-rule="nonzero" d="M3430.54 1059.78c16.54,-0.4 111.08,0.14 101.28,70.26 -0.6,4.31 -46.95,2.6 -61.28,2.6 -11.48,-0.05 -90.17,0.34 -92.13,-1.08 -34.88,-25.53 43.41,-67.87 52.13,-71.78z"/>
  <path fill="#FEFEFE" fill-rule="nonzero" d="M6634.63 987.94c134.94,6.27 176.05,80.07 176.88,207.22 -81.73,2.01 -163.6,0.49 -245.38,1.42 -7.01,0.1 -11.03,4.75 -7.16,11.27 35.14,58.36 101.14,66.64 156.55,32.68 5.44,-3.38 17.25,-10.24 24.5,-10.58 5.39,0.15 17.4,13.67 20.78,17.05 13.28,13.87 18.57,20.38 30.43,35.38 -38.32,29.74 -55.81,42.48 -105.01,51.1 -264.84,46.5 -324.56,-324.42 -51.59,-345.54z"/>
  <path fill="#120029" fill-rule="nonzero" d="M6610.96 1059.97c21.85,-1.12 66.69,-2.79 80.21,13.92 49.24,60.71 33.66,59.58 -17.15,58.7 -18.86,-0.35 -93.98,0.44 -116.71,-4.8 -2.84,-1.62 -2.45,-7.65 -1.91,-9.66 8.86,-32.24 29.45,-42.48 55.56,-58.16z"/>
  <path fill="#FEFEFE" fill-rule="nonzero" d="M4763.23 987.75c74.08,-4.17 112.99,4.06 155.13,66.34 8.72,77.13 5.53,195.36 3.38,275.03 -27.44,-0.19 -61.49,1.81 -88.05,-2.35 -3.97,-0.64 -1.57,-26.81 -4.46,-34.45l0.2 0.1c-8.68,2.4 -29.75,31.06 -59.05,36.11 -62.28,10.68 -100.79,8.92 -146.26,-38.9 -20.38,-40.82 -27.15,-76.34 -0.49,-116.62 42.68,-63.6 135.97,-42.68 200.35,-46.99 14.02,-0.93 6.86,-47.72 -14.89,-55.17 -52.57,-18.03 -105.89,2.84 -153.66,23.52 -12,-22.44 -21.61,-43.9 -33.03,-65.61 59.54,-28.03 77.08,-33.91 140.83,-41.01z"/>
  <path fill="#120029" fill-rule="nonzero" d="M4723.93 1187.96c31.12,-0.64 62.23,-0.79 93.34,-0.44 44.05,0.04 -14.7,60.21 -23.37,67.86 -82.56,29.59 -130.88,-25.53 -69.97,-67.42z"/>
  <path fill="#FEFEFE" fill-rule="nonzero" d="M5540.29 991.52c86.58,-5.98 109.61,-4.11 183.31,37.29 -11.12,21.51 -22.44,42.87 -34.11,64.04 -10.09,-3.87 -138.86,-63.4 -147.04,-7.25 7.3,23.03 44.05,32.14 65.95,38.71 79.23,23.66 157.93,73.59 98.49,162.33 -20.63,30.77 -65.71,41.99 -101.77,47.33 -69.78,-0.29 -114.85,-8.33 -173.85,-51.84 11.96,-22.59 21.07,-43.12 32.34,-65.66 37.73,22.93 104.86,64.58 147.1,43.61 58.84,-28.02 -2.01,-57.23 -37.29,-61.54 -133.23,-16.32 -188.55,-157.82 -33.13,-207.02z"/>
  <path fill="#FEFEFE" fill-rule="nonzero" d="M4262.51 890.19c32.93,-0.63 65.85,-0.54 98.78,0.25l-0.09 358.18c65.65,0.39 131.26,0.39 196.92,0 -0.05,27.24 0.44,55.95 -1.08,83.1 -94.47,1.27 -200.99,1.71 -295.31,-0.44 -1.18,-117.84 -6.37,-327.61 0.78,-441.09z"/>
  <path fill="#FEFEFE" fill-rule="nonzero" d="M7559.72 991.37c63.94,-3.13 106.52,2.7 163.75,35.43l8.43 4.6c-11.47,19.46 -24.7,45.13 -35.87,63.02 -26.46,-12.84 -107.21,-52.67 -137.29,-20.38 -24.65,30.67 38.81,48.11 56.25,52.13 85.21,19.65 160.37,83.15 94.08,169.58 -21.51,28.03 -68.99,36.95 -103.78,39.2 -65.51,-1.42 -105.79,-7.94 -160.82,-49.34 12.01,-28.32 15.88,-38.02 31.71,-66.34 36.8,20.92 111.08,64.92 149,42.72 47.19,-27.58 0.15,-52.87 -27.63,-59.58l-19.61 -4.75c-155.27,-37.1 -156.84,-167.87 -18.22,-206.29z"/>
  <path fill="#FEFEFE" fill-rule="nonzero" d="M3664.54 990.74c29.76,-0.3 59.51,-0.4 89.27,-0.25 30.53,80.65 57.49,166.79 87.71,244.01 25.93,-85.3 59.66,-159.14 87.71,-241.12 32.36,-1.03 61.69,-0.83 93.96,-0.24 -9.06,23.66 -19.91,51.3 -28.07,74.82 -33.94,80.26 -70.12,188.84 -108.02,264.35 -32.58,-0.94 -65.37,-0.94 -98.06,-1.72 -45.72,-112.55 -85.88,-224.85 -124.5,-339.85z"/>
  <path fill="#33E493" fill-rule="nonzero" d="M1498.96 122.78c39.64,-3.09 30.32,27.39 30.4,60.95 -84.31,43.46 -164.42,90.45 -246.93,134.31 -20.46,-2.84 -31.58,-36.6 -23.64,-47.58 36.73,-50.62 188.78,-121.47 240.17,-147.68z"/>
  <path fill="#33E493" fill-rule="nonzero" d="M1512.48 343.47c25.8,9.75 15.16,61.68 15.12,61.74 -38.62,30.33 -214.39,118.67 -247.09,132.59 -30.67,-10.88 -25.19,-62.23 13.38,-81.2 71.32,-35.08 145.43,-81.63 218.59,-113.13z"/>
 </g>
</svg>
